<svg xmlns="http://www.w3.org/2000/svg" width="232" height="465" viewBox="0 0 232 465">
  <g id="Group_22" data-name="Group 22" transform="translate(0 -1307)">
    <rect id="Rectangle_24" data-name="Rectangle 24" width="182" height="465" rx="16" transform="translate(0 1307)" fill="rgba(14,49,67,0.72)"/>
    <circle id="Ellipse_4" data-name="Ellipse 4" cx="11" cy="11" r="11" transform="translate(132 1429)" fill="#fff"/>
    <circle id="Ellipse_8" data-name="Ellipse 8" cx="11" cy="11" r="11" transform="translate(171 1468)" fill="#fff"/>
    <circle id="Ellipse_12" data-name="Ellipse 12" cx="11" cy="11" r="11" transform="translate(210 1510)" fill="#fff"/>
    <circle id="Ellipse_5" data-name="Ellipse 5" cx="11" cy="11" r="11" transform="translate(132 1468)" fill="#fff"/>
    <circle id="Ellipse_9" data-name="Ellipse 9" cx="11" cy="11" r="11" transform="translate(171 1509)" fill="#fff"/>
    <circle id="Ellipse_13" data-name="Ellipse 13" cx="11" cy="11" r="11" transform="translate(210 1550)" fill="#fff"/>
    <circle id="Ellipse_6" data-name="Ellipse 6" cx="11" cy="11" r="11" transform="translate(132 1509)" fill="#fff"/>
    <circle id="Ellipse_10" data-name="Ellipse 10" cx="11" cy="11" r="11" transform="translate(171 1550)" fill="#fff"/>
    <circle id="Ellipse_14" data-name="Ellipse 14" cx="11" cy="11" r="11" transform="translate(210 1589)" fill="#fff"/>
    <circle id="Ellipse_7" data-name="Ellipse 7" cx="11" cy="11" r="11" transform="translate(132 1550)" fill="#fff"/>
    <circle id="Ellipse_11" data-name="Ellipse 11" cx="11" cy="11" r="11" transform="translate(171 1589)" fill="#f7f7f7"/>
    <circle id="Ellipse_15" data-name="Ellipse 15" cx="11" cy="11" r="11" transform="translate(210 1628)" fill="#fff"/>
  </g>
</svg>
