<svg xmlns="http://www.w3.org/2000/svg" xmlns:xlink="http://www.w3.org/1999/xlink" width="513" height="680" viewBox="0 0 513 680">
  <defs>
    <filter id="Rectangle_2" x="48" y="0" width="435" height="680" filterUnits="userSpaceOnUse">
      <feOffset dy="3" input="SourceAlpha"/>
      <feGaussianBlur stdDeviation="3" result="blur"/>
      <feFlood flood-opacity="0.231"/>
      <feComposite operator="in" in2="blur"/>
      <feComposite in="SourceGraphic"/>
    </filter>
  </defs>
  <g id="Group_21" data-name="Group 21" transform="translate(-1321 -281)">
    <g transform="matrix(1, 0, 0, 1, 1321, 281)" filter="url(#Rectangle_2)">
      <rect id="Rectangle_2-2" data-name="Rectangle 2" width="417" height="662" rx="43" transform="translate(57 6)" fill="#fff"/>
    </g>
    <rect id="Rectangle_8" data-name="Rectangle 8" width="288" height="29" rx="14.5" transform="translate(1447 774)" fill="#a3acac"/>
    <rect id="Rectangle_20" data-name="Rectangle 20" width="288" height="29" rx="14.5" transform="translate(1447 472)" fill="#a3acac"/>
    <rect id="Rectangle_5" data-name="Rectangle 5" width="101" height="29" rx="14.5" transform="translate(1447 391)" fill="#d3ecee"/>
    <rect id="Rectangle_15" data-name="Rectangle 15" width="101" height="29" rx="14.5" transform="translate(1447 389)" fill="#d3ecee"/>
    <rect id="Rectangle_17" data-name="Rectangle 17" width="101" height="29" rx="14.5" transform="translate(1447 656)" fill="#d3ecee"/>
    <rect id="Rectangle_7" data-name="Rectangle 7" width="101" height="29" rx="14.5" transform="translate(1634 391)" fill="#d3ecee"/>
    <rect id="Rectangle_13" data-name="Rectangle 13" width="101" height="29" rx="14.5" transform="translate(1634 389)" fill="#d3ecee"/>
    <rect id="Rectangle_19" data-name="Rectangle 19" width="101" height="29" rx="14.5" transform="translate(1634 656)" fill="#d3ecee"/>
    <rect id="Rectangle_11" data-name="Rectangle 11" width="101" height="29" rx="14.5" transform="translate(1634 812)" fill="#a3acac"/>
    <rect id="Rectangle_21" data-name="Rectangle 21" width="101" height="29" rx="14.5" transform="translate(1634 511)" fill="#a3acac"/>
    <rect id="Rectangle_6" data-name="Rectangle 6" width="33" height="29" rx="14.5" transform="translate(1574 391)" fill="#d3ecee"/>
    <rect id="Rectangle_14" data-name="Rectangle 14" width="33" height="29" rx="14.5" transform="translate(1574 389)" fill="#d3ecee"/>
    <rect id="Rectangle_22" data-name="Rectangle 22" width="33" height="29" rx="14.5" transform="translate(1447 511)" fill="#a3acac"/>
    <rect id="Rectangle_18" data-name="Rectangle 18" width="33" height="29" rx="14.5" transform="translate(1574 656)" fill="#d3ecee"/>
    <rect id="Rectangle_10" data-name="Rectangle 10" width="101" height="29" rx="14.5" transform="translate(1447 812)" fill="#a3acac"/>
    <rect id="Rectangle_4" data-name="Rectangle 4" width="288" height="29" rx="14.5" transform="translate(1447 353)" fill="#d3ecee"/>
    <g id="Component_4_1" data-name="Component 4 – 1" transform="translate(1339 352)">
      <circle id="positive-task" cx="39" cy="39" r="39" fill="#34b757"/>
      <path id="Path_7" data-name="Path 7" d="M1175.51,578.6l12.954,12.358,20.1-20.994" transform="translate(-1153 -541)" fill="none" stroke="#fff" stroke-width="4"/>
    </g>
    <g id="Component_5_1" data-name="Component 5 – 1" transform="translate(1756 464)">
      <circle id="positive-task-2" data-name="positive-task" cx="39" cy="39" r="39" fill="#d12b2b"/>
      <path id="Path_8" data-name="Path 8" d="M1178.19,567.431l18.366,19.625,7.691,8.218" transform="translate(-1152 -542)" fill="none" stroke="#fff" stroke-width="4"/>
      <path id="Path_9" data-name="Path 9" d="M1178.19,595.274l18.366-19.625,7.691-8.218" transform="translate(-1152 -542)" fill="none" stroke="#fff" stroke-width="4"/>
    </g>
    <rect id="Rectangle_4-2" data-name="Rectangle 4" width="288" height="29" rx="14.5" transform="translate(1447 351)" fill="#d3ecee"/>
    <rect id="Rectangle_16" data-name="Rectangle 16" width="288" height="29" rx="14.5" transform="translate(1447 618)" fill="#d3ecee"/>
    <g id="Component_4_2" data-name="Component 4 – 2" transform="translate(1339 350)">
      <circle id="positive-task-3" data-name="positive-task" cx="39" cy="39" r="39" fill="#34b757"/>
      <path id="Path_7-2" data-name="Path 7" d="M1175.51,578.6l12.954,12.358,20.1-20.994" transform="translate(-1153 -541)" fill="none" stroke="#fff" stroke-width="4"/>
    </g>
    <g id="Component_5_2" data-name="Component 5 – 2" transform="translate(1756 462)">
      <circle id="positive-task-4" data-name="positive-task" cx="39" cy="39" r="39" fill="#d12b2b"/>
      <path id="Path_8-2" data-name="Path 8" d="M1178.19,567.431l18.366,19.625,7.691,8.218" transform="translate(-1152 -542)" fill="none" stroke="#fff" stroke-width="4"/>
      <path id="Path_9-2" data-name="Path 9" d="M1178.19,595.274l18.366-19.625,7.691-8.218" transform="translate(-1152 -542)" fill="none" stroke="#fff" stroke-width="4"/>
    </g>
    <g id="Component_4_1-2" data-name="Component 4 – 1" transform="translate(1339 608)">
      <circle id="positive-task-5" data-name="positive-task" cx="39" cy="39" r="39" fill="#34b757"/>
      <path id="Path_7-3" data-name="Path 7" d="M1175.51,578.6l12.954,12.358,20.1-20.994" transform="translate(-1153 -541)" fill="none" stroke="#fff" stroke-width="4"/>
    </g>
    <g id="Component_5_1-2" data-name="Component 5 – 1" transform="translate(1756 763)">
      <circle id="positive-task-6" data-name="positive-task" cx="39" cy="39" r="39" fill="#d12b2b"/>
      <path id="Path_8-3" data-name="Path 8" d="M1178.19,567.431l18.366,19.625,7.691,8.218" transform="translate(-1152 -542)" fill="none" stroke="#fff" stroke-width="4"/>
      <path id="Path_9-3" data-name="Path 9" d="M1178.19,595.274l18.366-19.625,7.691-8.218" transform="translate(-1152 -542)" fill="none" stroke="#fff" stroke-width="4"/>
    </g>
  </g>
</svg>
